# xmcd CD database file
#
# Track frame offsets:
#	150
#	39182
#	79730
#	113662
#	146645
#	167342
#	209037
#	233057
#	263322
#	286315
#	316102
#
# Disc length: 4685 seconds
#
# Revision: 0
# Processed by: cddbd v1.5.2PL0 Copyright (c) Steve Scherf et al.
# Submitted via: CDex 1.80
#
DISCID=87124b0b
DTITLE=Al Grey - Live At The Floating Jazz Festival
DYEAR=1991
DGENRE=Jazz
TTITLE0=Mood Indigo
TTITLE1=Lester Leaps In
TTITLE2=Low-Life Blues
TTITLE3=Perdido
TTITLE4=Pizza On The Park
TTITLE5=Deuces Wild
TTITLE6=Lil' Darlin'
TTITLE7=Now Ain't That Funk For You?
TTITLE8=C Jam Blues
TTITLE9=Jumping At The Woodside
TTITLE10=Jazzspeak
EXTD=YEAR: 1991
EXTT0=
EXTT1=
EXTT2=
EXTT3=
EXTT4=
EXTT5=
EXTT6=
EXTT7=
EXTT8=
EXTT9=
EXTT10=
PLAYORDER=
